<?xml version="1.0" encoding="UTF-8" standalone="no"?>
<svg xmlns="http://www.w3.org/2000/svg" width="512" height="512" viewBox="0 0 512 512">
  <!-- Background: rounded square -->
  <defs>
    <linearGradient id="bg" x1="0" y1="0" x2="1" y2="1">
      <stop offset="0%" stop-color="#16a34a"/>
      <stop offset="100%" stop-color="#0ea5e9"/>
    </linearGradient>
    <linearGradient id="card" x1="0" y1="0" x2="1" y2="1">
      <stop offset="0%" stop-color="#f8fafc"/>
      <stop offset="100%" stop-color="#e2e8f0"/>
    </linearGradient>
    <filter id="softShadow" x="-20%" y="-20%" width="140%" height="140%">
      <feDropShadow dx="0" dy="6" stdDeviation="10" flood-color="#0f172a" flood-opacity="0.25"/>
    </filter>
  </defs>

  <rect x="16" y="16" width="480" height="480" rx="88" ry="88" fill="url(#bg)"/>
  
  <!-- Card shape -->
  <g filter="url(#softShadow)">
    <rect x="96" y="116" width="320" height="200" rx="24" ry="24" fill="url(#card)" stroke="#cbd5e1" stroke-width="2"/>
    <!-- Contactless waves -->
    <g transform="translate(124,146)" fill="none" stroke="#0ea5e9" stroke-width="8" stroke-linecap="round">
      <path d="M0,24 c24,18 24,46 0,64"/>
      <path d="M22,8 c36,28 36,72 0,100" opacity="0.6"/>
      <path d="M46,0 c48,38 48,96 0,134" opacity="0.35"/>
    </g>
    <!-- "BUS CARD" stripe -->
    <rect x="96" y="232" width="320" height="40" fill="#0ea5e9" opacity="0.12"/>
  </g>

  <!-- Transfer ring with arrows -->
  <g transform="translate(256,356)">
    <circle r="84" fill="#ffffff" opacity="0.2"/>
    <circle r="74" fill="none" stroke="#ffffff" stroke-width="8" opacity="0.6" stroke-dasharray="6 10"/>
    <!-- Arrows -->
    <g fill="none" stroke="#ffffff" stroke-width="10" stroke-linecap="round" stroke-linejoin="round">
      <path d="M-20,-70 a70,70 0 0 1 90,34"/>
      <path d="M80,-26 l-22,4 l10-20"/>
      <path d="M20,70 a70,70 0 0 1 -90,-34"/>
      <path d="M-80,26 l22,-4 l-10,20"/>
    </g>

    <!-- Bus icon (left) -->
    <g transform="translate(-44,0)">
      <rect x="-38" y="-26" width="76" height="52" rx="12" ry="12" fill="#ffffff"/>
      <rect x="-30" y="-6" width="60" height="18" rx="4" ry="4" fill="#0ea5e9"/>
      <circle cx="-16" cy="18" r="10" fill="#16a34a"/>
      <circle cx="16" cy="18" r="10" fill="#16a34a"/>
      <rect x="-24" y="-18" width="48" height="8" rx="4" ry="4" fill="#94a3b8"/>
    </g>

    <!-- Subway/rail icon (right) -->
    <g transform="translate(44,0)">
      <rect x="-38" y="-26" width="76" height="52" rx="12" ry="12" fill="#ffffff"/>
      <path d="M-24,10 h48 v10 h-48 z" fill="#16a34a"/>
      <rect x="-24" y="-12" width="48" height="16" rx="3" ry="3" fill="#0ea5e9"/>
      <circle cx="-16" cy="18" r="10" fill="#0ea5e9"/>
      <circle cx="16" cy="18" r="10" fill="#0ea5e9"/>
    </g>
  </g>

</svg>
